<?xml version="1.0" encoding="UTF-8" standalone="no"?>
<!-- Created with Inkscape (http://www.inkscape.org/) -->

<svg
   width="45mm"
   height="40mm"
   viewBox="0 0 45 40.000001"
   version="1.1"
   id="svg1"
   inkscape:version="1.3.2 (091e20e, 2023-11-25)"
   sodipodi:docname="virion_antigen_location.svg"
   inkscape:export-filename="virion_antigen_location.png"
   inkscape:export-xdpi="600"
   inkscape:export-ydpi="600"
   xmlns:inkscape="http://www.inkscape.org/namespaces/inkscape"
   xmlns:sodipodi="http://sodipodi.sourceforge.net/DTD/sodipodi-0.dtd"
   xmlns="http://www.w3.org/2000/svg"
   xmlns:svg="http://www.w3.org/2000/svg">
  <sodipodi:namedview
     id="namedview1"
     pagecolor="#ffffff"
     bordercolor="#000000"
     borderopacity="0.25"
     inkscape:showpageshadow="2"
     inkscape:pageopacity="0.0"
     inkscape:pagecheckerboard="0"
     inkscape:deskcolor="#d1d1d1"
     inkscape:document-units="mm"
     inkscape:zoom="3.3682491"
     inkscape:cx="115.34183"
     inkscape:cy="98.864422"
     inkscape:window-width="1792"
     inkscape:window-height="995"
     inkscape:window-x="0"
     inkscape:window-y="25"
     inkscape:window-maximized="0"
     inkscape:current-layer="layer1" />
  <defs
     id="defs1">
    <clipPath
       clipPathUnits="userSpaceOnUse"
       id="clipPath41">
      <path
         d="M 6.437e-6,0 H 432.00001 V 144 H 6.437e-6 Z"
         transform="matrix(1,0,0,-1,-230.68,104.3)"
         clip-rule="evenodd"
         id="path41" />
    </clipPath>
    <clipPath
       clipPathUnits="userSpaceOnUse"
       id="clipPath43">
      <path
         d="M 6.437e-6,0 H 432.00001 V 144 H 6.437e-6 Z"
         transform="matrix(1,0,0,-1,-230.68,109.52)"
         clip-rule="evenodd"
         id="path43" />
    </clipPath>
    <clipPath
       clipPathUnits="userSpaceOnUse"
       id="clipPath45">
      <path
         d="M 6.437e-6,0 H 432.00001 V 144 H 6.437e-6 Z"
         transform="matrix(1,0,0,-1,-230.68,114.72)"
         clip-rule="evenodd"
         id="path45" />
    </clipPath>
    <clipPath
       clipPathUnits="userSpaceOnUse"
       id="clipPath48">
      <path
         d="M 6.437e-6,0 H 432.00001 V 144 H 6.437e-6 Z"
         transform="matrix(1,0,0,-1,-231.13,125.32)"
         clip-rule="evenodd"
         id="path48" />
    </clipPath>
    <clipPath
       clipPathUnits="userSpaceOnUse"
       id="clipPath50">
      <path
         d="M 6.437e-6,0 H 432.00001 V 144 H 6.437e-6 Z"
         transform="matrix(1,0,0,-1,-231.13,130.25)"
         clip-rule="evenodd"
         id="path50" />
    </clipPath>
    <clipPath
       clipPathUnits="userSpaceOnUse"
       id="clipPath54">
      <path
         d="M 6.437e-6,0 H 432.00001 V 144 H 6.437e-6 Z"
         transform="matrix(1,0,0,-1,-209.83,107.47)"
         clip-rule="evenodd"
         id="path54" />
    </clipPath>
    <clipPath
       clipPathUnits="userSpaceOnUse"
       id="clipPath56">
      <path
         d="M 6.437e-6,0 H 432.00001 V 144 H 6.437e-6 Z"
         transform="matrix(1,0,0,-1,-209.83,126)"
         clip-rule="evenodd"
         id="path56" />
    </clipPath>
  </defs>
  <g
     inkscape:label="Layer 1"
     inkscape:groupmode="layer"
     id="layer1"
     transform="translate(-56.786805,-76.256398)">
    <g
       id="g3"
       transform="matrix(0.93190476,0,0,0.86099038,5.8921876,15.608994)"
       style="stroke-width:1.11639">
      <path
         id="path35"
         d="m 70.696665,96.522683 c -0.638527,0.47448 -3.52425,1.13947 -2.610554,2.47967 0.910167,1.339847 3.538361,-1.10843 4.116917,-0.49107 0.582083,0.61736 -2.38125,3.100207 -0.642056,4.194527 1.742723,1.09432 2.582333,-3.185927 3.552473,-3.277657 0.973666,-0.0921 1.60161,2.944287 2.275416,2.725917 0.677334,-0.21802 0.02822,-4.108447 1.774471,-4.035077 1.74625,0.073 0.864306,4.150427 2.751666,4.071057 1.887363,-0.0794 1.14653,-3.338337 2.229557,-3.420887 1.083027,-0.0826 3.3655,3.921827 4.26861,2.925587 0.903113,-0.9966 -2.4765,-2.750957 -2.024944,-3.658657 0.455084,-0.90805 1.950861,1.1677 2.76225,0.2286 0.81139,-0.93945 -1.262943,-2.47897 -1.072443,-2.23308"
         style="fill:none;stroke:#042433;stroke-width:0.393836;stroke-linecap:butt;stroke-linejoin:miter;stroke-miterlimit:10;stroke-dasharray:none;stroke-opacity:1" />
      <path
         id="path36"
         d="m 78.888165,95.742684 c -2.801056,-0.02258 -4.490861,-2.967919 -8.205611,-2.911475 -3.71475,0.05644 -7.260166,2.020005 -7.270749,6.49993 -0.01411,4.479921 3.60186,7.831671 7.203721,7.786511 3.601861,-0.0452 5.549195,-3.14854 8.406694,-3.18241 2.8575,-0.0339 4.758972,3.08081 8.741833,2.97921 3.979333,-0.1016 6.38175,-3.63361 6.335889,-7.244644 -0.04233,-3.611033 -1.901472,-6.669264 -6.604,-6.70313 -4.702527,-0.03387 -5.803194,2.798586 -8.607777,2.776008 z"
         style="fill:none;stroke:#042433;stroke-width:0.393837;stroke-linecap:butt;stroke-linejoin:miter;stroke-miterlimit:10;stroke-dasharray:none;stroke-opacity:1" />
      <path
         id="path37"
         d="m 77.536629,93.75294 c 0,-0.657578 0.592667,-1.190625 1.322917,-1.190625 0.730249,0 1.322916,0.533047 1.322916,1.190625 0,0.657578 -0.592667,1.190625 -1.322916,1.190625 -0.73025,0 -1.322917,-0.533047 -1.322917,-1.190625 z"
         style="fill:#000000;fill-opacity:1;fill-rule:evenodd;stroke:#000000;stroke-width:0.590756;stroke-linecap:butt;stroke-linejoin:miter;stroke-miterlimit:10;stroke-dasharray:none;stroke-opacity:1" />
      <path
         id="path38"
         d="m 77.300665,106.05967 c 0,-0.65758 0.592667,-1.19063 1.322917,-1.19063 0.730249,0 1.322916,0.53305 1.322916,1.19063 0,0.65758 -0.592667,1.19062 -1.322916,1.19062 -0.73025,0 -1.322917,-0.53304 -1.322917,-1.19062 z"
         style="fill:#000000;fill-opacity:1;fill-rule:evenodd;stroke:#000000;stroke-width:0.590756;stroke-linecap:butt;stroke-linejoin:miter;stroke-miterlimit:10;stroke-dasharray:none;stroke-opacity:1" />
      <path
         id="path39"
         d="m 62.618055,94.550295 c 0,-1.53423 1.241777,-2.776361 2.776361,-2.776361 h 26.722915 c 1.534583,0 2.779889,1.242131 2.779889,2.776361 v 11.112495 c 0,1.53423 -1.245306,2.77813 -2.779889,2.77813 H 65.394416 c -1.534584,0 -2.776361,-1.2439 -2.776361,-2.77813 z"
         style="fill:none;stroke:#042433;stroke-width:0.393837;stroke-linecap:butt;stroke-linejoin:miter;stroke-miterlimit:10;stroke-dasharray:none;stroke-opacity:1" />
    </g>
    <g
       id="g45"
       transform="matrix(0.26458333,0,0,0.24882123,-10.276414,78.832881)"
       style="stroke-width:1.03119">
      <path
         id="path46"
         d="m 202.88,109.62 c 0,6.77 5.48,12.25 12.25,12.25 h 77.49 c 6.77,0 12.26,-5.48 12.26,-12.25 V 60.625 c 0,-6.765 -5.49,-12.25 -12.26,-12.25 h -77.49 c -6.77,0 -12.25,5.485 -12.25,12.25 z"
         style="fill:none;stroke:#042433;stroke-width:1.03119;stroke-linecap:butt;stroke-linejoin:miter;stroke-miterlimit:10;stroke-dasharray:none;stroke-opacity:1"
         transform="matrix(1.3333333,0,0,-1.3333333,0,192)" />
    </g>
    <text
       xml:space="preserve"
       style="font-size:1.76389px;line-height:1.25;font-family:arial;-inkscape-font-specification:arial;stroke-width:0.264583"
       x="71.285881"
       y="83.104248"
       id="text1"><tspan
         sodipodi:role="line"
         id="tspan1"
         x="71.285881"
         y="83.104248"
         style="font-size:1.76389px;stroke-width:0.264583"><tspan
   style="font-size:1.76389px;fill:#1f78b4;fill-opacity:1;stroke-width:0.264583"
   id="tspan2">MPXV A35R</tspan> / <tspan
   style="font-size:1.76389px;fill:#b15928;fill-opacity:1;stroke-width:0.264583"
   id="tspan3">VACV A33R</tspan></tspan></text>
    <text
       xml:space="preserve"
       style="font-size:1.76389px;line-height:1.25;font-family:arial;-inkscape-font-specification:arial;stroke-width:0.264583"
       x="71.285881"
       y="84.959579"
       id="text1-1"><tspan
         sodipodi:role="line"
         id="tspan1-9"
         x="71.285881"
         y="84.959579"
         style="font-size:1.76389px;stroke-width:0.264583"><tspan
   style="font-size:1.76389px;fill:#1f78b4;fill-opacity:1;stroke-width:0.264583"
   id="tspan2-2">MPXV B6R</tspan> / <tspan
   style="font-size:1.76389px;fill:#b15928;fill-opacity:1;stroke-width:0.264583"
   id="tspan3-4">VACV B5R</tspan></tspan></text>
    <text
       xml:space="preserve"
       style="font-size:1.76389px;line-height:1.25;font-family:arial;-inkscape-font-specification:arial;stroke-width:0.264583"
       x="71.285881"
       y="89.059341"
       id="text1-1-7"><tspan
         sodipodi:role="line"
         id="tspan1-9-5"
         x="71.285881"
         y="89.059341"
         style="font-size:1.76389px;stroke-width:0.264583"><tspan
   style="font-size:1.76389px;fill:#1f78b4;fill-opacity:1;stroke-width:0.264583"
   id="tspan2-2-3">MPXV M1R</tspan> / <tspan
   style="font-size:1.76389px;fill:#b15928;fill-opacity:1;stroke-width:0.264583"
   id="tspan3-4-9">VACV L1R</tspan></tspan></text>
    <text
       xml:space="preserve"
       style="font-size:1.76389px;line-height:1.25;font-family:arial;-inkscape-font-specification:arial;stroke-width:0.264583"
       x="71.285881"
       y="90.802025"
       id="text1-1-7-5"><tspan
         sodipodi:role="line"
         id="tspan1-9-5-8"
         x="71.285881"
         y="90.802025"
         style="font-size:1.76389px;stroke-width:0.264583"><tspan
   style="font-size:1.76389px;fill:#1f78b4;fill-opacity:1;stroke-width:0.264583"
   id="tspan2-2-3-9">MPXV A29L</tspan> / <tspan
   style="font-size:1.76389px;fill:#b15928;fill-opacity:1;stroke-width:0.264583"
   id="tspan3-4-9-9">VACV A27L</tspan></tspan></text>
    <text
       xml:space="preserve"
       style="font-size:1.76389px;line-height:1.25;font-family:arial;-inkscape-font-specification:arial;stroke-width:0.264583"
       x="71.285881"
       y="92.544701"
       id="text1-1-7-5-3"><tspan
         sodipodi:role="line"
         id="tspan1-9-5-8-1"
         x="71.285881"
         y="92.544701"
         style="font-size:1.76389px;stroke-width:0.264583"><tspan
   style="font-size:1.76389px;fill:#1f78b4;fill-opacity:1;stroke-width:0.264583"
   id="tspan2-2-3-9-0">MPXV E8L</tspan> / <tspan
   style="font-size:1.76389px;fill:#b15928;fill-opacity:1;stroke-width:0.264583"
   id="tspan3-4-9-9-2">VACV D8L</tspan></tspan></text>
    <g
       id="g52"
       transform="matrix(0.26458333,0,0,0.26458333,-10.276414,78.410714)">
      <path
         id="path53"
         d="M 0.90242188,2.734375e-4 V -6.9372266 H 1.9219531 l 2.4609375,4.0898438 h -0.375 l 2.4257813,-4.0898438 h 0.984375 V 2.734375e-4 H 6.5039844 V -6.1637891 h 0.328125 l -2.3554688,3.984375 h -0.609375 l -2.390625,-3.984375 H 1.7930469 V 2.734375e-4 Z m 9.87890612,0 L 8.2969531,-6.9372266 h 0.9726563 l 2.0624996,5.96484379 2.074219,-5.96484379 h 0.972656 L 11.859453,2.734375e-4 Z M 15.764727,0.04714844 c -0.1875,0 -0.348633,-0.06152344 -0.480469,-0.1875 -0.125977,-0.12304688 -0.1875,-0.27539063 -0.1875,-0.45703125 0,-0.1875 0.06152,-0.33984375 0.1875,-0.45703129 0.131836,-0.1230468 0.292969,-0.1875 0.480469,-0.1875 0.1875,0 0.342773,0.064453 0.46875,0.1875 0.123046,0.11718754 0.1875,0.26953129 0.1875,0.45703129 0,0.18164062 -0.06445,0.33398437 -0.1875,0.45703125 -0.125977,0.12597656 -0.28125,0.1875 -0.46875,0.1875 z m 0,-3.77343754 c -0.1875,0 -0.348633,-0.061523 -0.480469,-0.1875 -0.125977,-0.1230468 -0.1875,-0.2753906 -0.1875,-0.4570312 0,-0.1875 0.06152,-0.3398438 0.1875,-0.4570313 0.131836,-0.1230468 0.292969,-0.1875 0.480469,-0.1875 0.1875,0 0.342773,0.064453 0.46875,0.1875 0.123046,0.1171875 0.1875,0.2695313 0.1875,0.4570313 0,0.1816406 -0.06445,0.3339844 -0.1875,0.4570312 -0.125977,0.1259766 -0.28125,0.1875 -0.46875,0.1875 z m 0,0"
         style="fill:#000000;fill-opacity:1;fill-rule:nonzero;stroke:none"
         aria-label="MV:"
         transform="matrix(1.3333333,0,0,1.3333333,279.77333,48.706667)"
         clip-path="url(#clipPath54)" />
    </g>
    <g
       id="g54"
       transform="matrix(0.26458333,0,0,0.26458333,-10.276414,77.881547)">
      <path
         id="path55"
         d="M 0.90242188,0 V -6.9375 H 5.3321094 v 0.7734375 H 1.8282031 v 2.2148437 H 5.0508594 V -3.1875 H 1.8282031 v 2.4140625 H 5.3321094 V 0 Z M 8.5225391,0 6.0381641,-6.9375 h 0.9726562 l 2.0625,5.96484375 L 11.147539,-6.9375 h 0.972656 L 9.6006641,0 Z m 4.9833989,0.046875 c -0.1875,0 -0.348633,-0.06152344 -0.480469,-0.1875 -0.125977,-0.12304688 -0.1875,-0.27539063 -0.1875,-0.45703125 0,-0.1875 0.06152,-0.33984375 0.1875,-0.45703125 0.131836,-0.1230469 0.292969,-0.1875 0.480469,-0.1875 0.1875,0 0.342773,0.064453 0.46875,0.1875 0.123046,0.1171875 0.1875,0.26953125 0.1875,0.45703125 0,0.18164062 -0.06445,0.33398437 -0.1875,0.45703125 -0.125977,0.12597656 -0.28125,0.1875 -0.46875,0.1875 z m 0,-3.7734375 c -0.1875,0 -0.348633,-0.061523 -0.480469,-0.1875 -0.125977,-0.1230469 -0.1875,-0.2753906 -0.1875,-0.4570312 0,-0.1875 0.06152,-0.3398438 0.1875,-0.4570313 0.131836,-0.1230469 0.292969,-0.1875 0.480469,-0.1875 0.1875,0 0.342773,0.064453 0.46875,0.1875 0.123046,0.1171875 0.1875,0.2695313 0.1875,0.4570313 0,0.1816406 -0.06445,0.3339843 -0.1875,0.4570312 -0.125977,0.1259766 -0.28125,0.1875 -0.46875,0.1875 z m 0,0"
         style="fill:#000000;fill-opacity:1;fill-rule:nonzero;stroke:none"
         aria-label="EV:"
         transform="matrix(1.3333333,0,0,1.3333333,279.77333,24)"
         clip-path="url(#clipPath56)" />
    </g>
  </g>
</svg>
